<?xml version="1.0" encoding="utf-8"?>
<!-- Generator: Adobe Illustrator 21.1.0, SVG Export Plug-In . SVG Version: 6.00 Build 0)  -->
<svg version="1.1" id="レイヤー_1" xmlns="http://www.w3.org/2000/svg" xmlns:xlink="http://www.w3.org/1999/xlink" x="0px"
	 y="0px" viewBox="0 0 196.5 152" style="enable-background:new 0 0 196.5 152;" xml:space="preserve">
<style type="text/css">
	.st0{fill:none;}
	.st1{fill:#FFFFFF;}
	.st2{font-family:'HGSSoeiKakupoptai';}
	.st3{font-size:18px;}
	.st4{fill:#92BEE6;stroke:#1487BE;stroke-miterlimit:10;}
	.st5{fill:#020519;}
	.st6{fill:#33479B;}
</style>
<rect x="-18" y="32.4" class="st0" width="119.3" height="20.6"/>
<text transform="matrix(1 0 0 1 4.7833 44.5588)" class="st1 st2 st3">All Tweets</text>
<g>
	<path class="st4" d="M64.3,65.9c0-9.4,14.3-17.1,32-17.1c0.7,0,1.4,0,2,0c2.7-12.4,8-20.8,14-20.8c3.9,0,7.4,3.4,10.1,9.1
		c3.5-1.1,7.3-1.8,11.4-1.8c15.3,0,27.8,9.1,27.8,20.3c0,2.4-0.6,4.7-1.6,6.8c11.5,1.9,19.8,7.5,19.8,14c0,5.2-5.3,9.7-13.2,12.4
		c0.7,1.3,1,2.7,1,4.2c0,7.5-9.3,13.6-20.8,13.6c-4,0-7.7-0.7-10.8-2c-3.3,4.3-8.8,7.1-14.9,7.1c-6.9,0-13-3.5-16.1-8.7
		c-0.4-0.5-0.8-1.1-1.2-1.8c-2.7,1.2-5.8,1.8-9.2,1.8C84.4,103,76,96.8,76,89.1c0-3.2,1.5-6.1,3.9-8.5
		C70.5,77.6,64.3,72.1,64.3,65.9z"/>
	<ellipse class="st5" cx="135.9" cy="88.4" rx="2" ry="4.9"/>
	<ellipse class="st5" cx="149.1" cy="89.2" rx="2" ry="4.9"/>
	<path class="st6" d="M140.7,98.7c-0.6-1.1-0.8-2.3-0.5-3.3c0.9-2.7,5.1-3.5,9.4-1.7c4.3,1.8,7.2,5.4,6.3,8.1
		c-0.5,1.6-2.1,2.5-4.2,2.6c0.9,2.8,0.9,5.2-0.3,6.1c-1.8,1.4-5.4-1.2-8.2-5.7C142,102.7,141.1,100.5,140.7,98.7z"/>
</g>
</svg>
